<svg width="16" height="15" viewBox="0 0 16 15" fill="none" xmlns="http://www.w3.org/2000/svg">
<path fill-rule="evenodd" clip-rule="evenodd" d="M5 0H11C13.761 0 16 2.06538 16 4.61227V10.147C16 12.6939 13.761 14.7593 11 14.7593H5C2.239 14.7593 0 12.6939 0 10.147V4.61227C0 2.06538 2.239 0 5 0ZM11 13.3755C12.93 13.3755 14.5 11.9273 14.5 10.1469V4.61221C14.5 2.83187 12.93 1.38362 11 1.38362H5C3.07 1.38362 1.5 2.83187 1.5 4.61221V10.1469C1.5 11.9273 3.07 13.3755 5 13.3755H11Z" fill="#939393"/>
<path fill-rule="evenodd" clip-rule="evenodd" d="M4 7.37958C4 5.34187 5.791 3.68976 8 3.68976C10.209 3.68976 12 5.34187 12 7.37958C12 9.41728 10.209 11.0694 8 11.0694C5.791 11.0694 4 9.41728 4 7.37958ZM5.5 7.37946C5.5 8.6506 6.622 9.6856 8 9.6856C9.378 9.6856 10.5 8.6506 10.5 7.37946C10.5 6.10739 9.378 5.07332 8 5.07332C6.622 5.07332 5.5 6.10739 5.5 7.37946Z" fill="#939393"/>
<path d="M12.2996 3.90454C12.594 3.90454 12.8326 3.68441 12.8326 3.41287C12.8326 3.14133 12.594 2.9212 12.2996 2.9212C12.0052 2.9212 11.7666 3.14133 11.7666 3.41287C11.7666 3.68441 12.0052 3.90454 12.2996 3.90454Z" fill="#939393"/>
</svg>
