<svg width="16" height="15" viewBox="0 0 16 15" fill="none" xmlns="http://www.w3.org/2000/svg">
<path d="M16 1.74727C15.405 2.04359 14.771 2.24 14.11 2.33537C14.79 1.87443 15.309 1.15009 15.553 0.27702C14.919 0.706175 14.219 1.00931 13.473 1.17847C12.871 0.450726 12.013 0 11.077 0C9.261 0 7.799 1.67347 7.799 3.72501C7.799 4.0202 7.821 4.30403 7.875 4.57424C5.148 4.42324 2.735 2.93937 1.114 0.678927C0.831 1.23637 0.665 1.87443 0.665 2.5613C0.665 3.85104 1.25 4.99431 2.122 5.65621C1.595 5.64486 1.078 5.47115 0.64 5.19754C0.64 5.20889 0.64 5.22365 0.64 5.23841C0.64 7.04812 1.777 8.5513 3.268 8.89757C3.001 8.98045 2.71 9.02019 2.408 9.02019C2.198 9.02019 1.986 9.00657 1.787 8.95661C2.212 10.4314 3.418 11.5156 4.852 11.5508C3.736 12.542 2.319 13.1392 0.785 13.1392C0.516 13.1392 0.258 13.1255 0 13.0881C1.453 14.1519 3.175 14.7593 5.032 14.7593C11.068 14.7593 14.368 9.08263 14.368 4.16212C14.368 3.99749 14.363 3.83855 14.356 3.68074C15.007 3.15621 15.554 2.50113 16 1.74727Z" fill="#939393"/>
</svg>
