<svg width="16" height="17" viewBox="0 0 16 17" fill="none" xmlns="http://www.w3.org/2000/svg">
<path d="M14.75 15.4283L10.25 10.9283M1.25 7.17834C1.25 7.86778 1.3858 8.55047 1.64963 9.18743C1.91347 9.82439 2.30018 10.4031 2.78769 10.8907C3.2752 11.3782 3.85395 11.7649 4.49091 12.0287C5.12787 12.2925 5.81056 12.4283 6.5 12.4283C7.18944 12.4283 7.87213 12.2925 8.50909 12.0287C9.14605 11.7649 9.7248 11.3782 10.2123 10.8907C10.6998 10.4031 11.0865 9.82439 11.3504 9.18743C11.6142 8.55047 11.75 7.86778 11.75 7.17834C11.75 6.4889 11.6142 5.80622 11.3504 5.16926C11.0865 4.5323 10.6998 3.95354 10.2123 3.46603C9.7248 2.97853 9.14605 2.59181 8.50909 2.32798C7.87213 2.06414 7.18944 1.92834 6.5 1.92834C5.81056 1.92834 5.12787 2.06414 4.49091 2.32798C3.85395 2.59181 3.2752 2.97853 2.78769 3.46603C2.30018 3.95354 1.91347 4.5323 1.64963 5.16926C1.3858 5.80622 1.25 6.4889 1.25 7.17834Z" stroke="black" stroke-width="2" stroke-linecap="round" stroke-linejoin="round"/>
</svg>
